<?xml version="1.0" encoding="UTF-8"?>
<svg id="Layer_1" data-name="Layer 1" xmlns="http://www.w3.org/2000/svg" viewBox="0 0 1576.11 235.76">
  <defs>
    <style>
      .cls-1, .cls-2 {
        fill: #fff;
      }

      .cls-3 {
        fill: none;
        stroke: #c70d3a;
        stroke-miterlimit: 10;
        stroke-width: 30px;
      }

      .cls-2 {
        fill-rule: evenodd;
      }

      .cls-4 {
        isolation: isolate;
      }

      .cls-5 {
        opacity: 0;
      }

      .cls-6 {
        opacity: .15;
      }

      .cls-6, .cls-7 {
        fill: #c70d3a;
      }
    </style>
  </defs>
  <path class="cls-3" d="m274.02,233.44c4.21-29.44,6.3-58.97,5.26-88.51,0-5.72,0-12.4-4.68-17.16-1.04-.48-3.32-.81-3.09-1.11-.1.38-.3.73-.59.99,6.81-14.66,9.93-30.86,7.82-46.53-.74-5.54-.63-5.78-.63-5.78-2.61-11.17-8.41-21.47-16.16-30.38-8.07-9.26-18.45-15.98-29.68-21.65-2.68-1.36-5.39-2.63-8.12-3.88-3.02-1.4-5.17-.31-8.13.79-5.49,2.03-10.81,4.43-15.85,7.27s-9.69,6.05-13.95,9.72c-2.21,1.9-4.33,3.93-6.31,6.05s-3.52,4.4-5.39,6.56c-3.95,4.56-6.58,10.54-8.43,16.07s-2.91,11.5-3.24,17.39c-.08,1.49-.13,2.96-.13,4.45v67.88h0"/>
  <g class="cls-5">
    <path d="m2.58.06C1.81.64,1.01,1.18.19,1.7c-.17.1-.25.34-.13.51s.34.25.51.13c.82-.51,1.62-1.06,2.4-1.64.16-.12.25-.33.13-.51-.1-.15-.35-.26-.51-.13h0Z"/>
  </g>
  <path class="cls-3" d="m50.66,233.63c-4.21-29.44-6.3-58.97-5.26-88.51,0-5.72,0-12.4,4.68-17.16,1.04-.48,3.32-.81,3.09-1.11.1.38.3.73.59.99-6.81-14.66-9.93-30.86-7.82-46.53.74-5.54.63-5.78.63-5.78,2.61-11.17,8.41-21.47,16.16-30.38,8.07-9.26,18.45-15.98,29.68-21.65,2.68-1.36,5.39-2.63,8.12-3.88,3.02-1.4,5.17-.31,8.13.79,5.49,2.03,10.81,4.43,15.85,7.27s9.69,6.05,13.95,9.72c2.21,1.9,4.33,3.93,6.31,6.05s3.52,4.4,5.39,6.56c3.95,4.56,6.58,10.54,8.43,16.07s2.91,11.5,3.24,17.39c.08,1.49.13,2.96.13,4.45v67.88h0"/>
  <g class="cls-4">
    <path class="cls-1" d="m1273.48,76.68c-.36,5.04-2.07,9.98-5.13,14.82-3.06,4.84-6.29,8.43-9.67,10.75-5.26-3.87-11.02-6.97-17.29-9.3-6.27-2.32-12.5-3.49-18.7-3.49-7.35,0-13.76,1.88-19.24,5.64-5.48,3.76-9.71,9.65-12.7,17.66-2.99,8.02-4.48,18.46-4.48,31.32,0,18.44,3.19,31.96,9.56,40.56,6.38,8.6,15.55,12.9,27.51,12.9,7.06,0,13.47-.71,19.24-2.15,5.76-1.43,10.45-2.77,14.05-4.01l17.29,24.52c-4.18,1.55-9.19,3.06-15.02,4.53-5.84,1.47-12.25,2.69-19.24,3.66-6.99.97-14.34,1.45-22.05,1.45-11.17,0-20.84-1.94-29.02-5.81-8.18-3.87-14.93-9.39-20.27-16.56-5.33-7.17-9.29-15.77-11.89-25.8-2.59-10.03-3.89-21.21-3.89-33.53,0-14.18,1.91-26.52,5.73-37.02,3.82-10.5,8.97-19.21,15.46-26.15,6.49-6.93,13.8-12.1,21.94-15.51,8.14-3.41,16.54-5.11,25.18-5.11,9.8,0,19.22,1.53,28.26,4.59,9.04,3.06,17.17,7.07,24.37,12.03Zm-21.51,56.25c8.28,0,14.01,2.03,17.18,6.1,3.17,4.07,4.76,9.36,4.76,15.86v7.67h-42.26c-3.46,0-6.38-.46-8.75-1.39-2.38-.93-4.16-2.48-5.35-4.65-1.19-2.17-1.78-5.11-1.78-8.83,0-2.4.23-4.92.7-7.55.47-2.63,1.03-5.04,1.68-7.21h33.83Zm-9.08,45.56c0-5.5.18-11.23.54-17.2.36-5.97,1.19-11.43,2.49-16.39l27.99,9.99v61.01l-31.02.46v-37.89Z"/>
    <path class="cls-1" d="m1292.4,190.46c0-9.22,2-16.79,6-22.72,4-5.93,9.24-10.3,15.73-13.13,6.49-2.83,13.44-4.24,20.86-4.24,3.39,0,7.57.1,12.54.29,4.97.19,9.44.72,13.4,1.57v22.08c-3.24-.77-7.06-1.24-11.46-1.39-4.4-.15-8.14-.23-11.24-.23-5.04,0-8.72,1.43-11.02,4.3-2.31,2.87-3.46,6.59-3.46,11.16,0,3.33.94,6.12,2.81,8.37,1.87,2.25,4.47,3.37,7.78,3.37,4.47,0,9.04-1.7,13.73-5.11,4.68-3.41,8.61-8.17,11.78-14.29l4.54,22.43c-2.81,3.56-6.04,7.07-9.67,10.52-3.64,3.45-7.87,6.33-12.7,8.66-4.83,2.32-10.45,3.49-16.86,3.49-7.42,0-13.55-1.76-18.37-5.29-4.83-3.52-8.43-7.98-10.81-13.36-2.38-5.38-3.57-10.87-3.57-16.45Zm96.95,15.81c-.65,3.1-1.96,6.41-3.94,9.94-1.98,3.53-4.02,6.14-6.11,7.84-6.13-.23-11.15-1.82-15.08-4.76-3.93-2.94-6.94-6.53-9.03-10.75-2.09-4.22-3.42-8.39-4-12.49v-49.97c0-5.27-1.21-9.18-3.62-11.74-2.41-2.56-6.11-3.83-11.08-3.83s-9.89.79-15.4,2.38c-5.51,1.59-11.08,3.31-16.7,5.17-2.31-2.79-4.13-6.43-5.46-10.92-1.33-4.49-2.18-8.87-2.54-13.13,4.76-2.09,10.03-3.91,15.83-5.46,5.8-1.55,11.58-2.75,17.35-3.6,5.76-.85,10.99-1.28,15.67-1.28,6.41,0,12.52,1.28,18.32,3.83,5.8,2.56,10.54,6.72,14.21,12.49,3.67,5.77,5.51,13.5,5.51,23.19v47.3c0,3.56.47,6.64,1.4,9.24.94,2.6,2.49,4.79,4.65,6.57Z"/>
    <path class="cls-1" d="m1471.38,106.09c.94,4.11,1.4,8.18,1.4,12.2,0,4.42-.47,8.6-1.4,12.55l-39.67-.7-34.37.7c-.94-3.95-1.4-8.14-1.4-12.55,0-4.03.47-8.1,1.4-12.2l35.23.7,38.8-.7Zm-57.28-13.83c0-7.75,1.33-13.17,4-16.27,2.67-3.1,7.17-4.65,13.51-4.65h12.54l1.4,1.51v113.2c0,3.41.74,6.06,2.22,7.96,1.48,1.9,3.91,2.85,7.3,2.85h12.54c1.66,5.35,2.49,10.85,2.49,16.5,0,1.24-.04,2.56-.11,3.95s-.29,2.67-.65,3.83c-3.89.54-8.36,1.05-13.4,1.51-5.04.47-9.73.7-14.05.7-9.44,0-16.43-2.54-20.97-7.61-4.54-5.07-6.81-12.92-6.81-23.53v-99.95Z"/>
    <path class="cls-1" d="m1503.91,175.47v-23.94h42.48v-2.67c0-3.87-.5-7.4-1.51-10.58-1.01-3.18-2.63-5.73-4.86-7.67-2.23-1.94-5.19-2.91-8.86-2.91-5.55,0-9.49,2.46-11.84,7.38-2.34,4.92-3.51,12.34-3.51,22.26v10.46c0,5.58.47,10.73,1.4,15.46.94,4.73,2.86,8.54,5.78,11.45s7.33,4.36,13.24,4.36c4.9,0,9.74-.72,14.54-2.15,4.79-1.43,9.38-3.16,13.78-5.17,2.38,2.56,4.29,5.77,5.73,9.65,1.44,3.87,2.41,7.52,2.92,10.92-5.4,4.26-11.87,7.54-19.4,9.82-7.53,2.29-15.11,3.43-22.75,3.43-9.37,0-17.13-1.68-23.29-5.06-6.16-3.37-11.02-7.92-14.59-13.66-3.57-5.73-6.09-12.2-7.57-19.41-1.48-7.21-2.22-14.68-2.22-22.43,0-11.7,1.66-22.22,4.97-31.55,3.31-9.34,8.48-16.75,15.51-22.26,7.03-5.5,16.16-8.25,27.4-8.25,9.51,0,17.6,2.17,24.26,6.51,6.66,4.34,11.76,10.23,15.29,17.66,3.53,7.44,5.3,15.85,5.3,25.22,0,4.96-.2,9.1-.59,12.44-.4,3.33-1.1,6.9-2.11,10.69h-69.5Z"/>
  </g>
  <path class="cls-2" d="m638.42,193.16c7.55-13.36,10.17-26.48,8.44-41.49-1.02-8.69-10.36-36.4-21.2-38.05-4.61-13.17-35.59-15.42-46.29-14.34-14.65,1.42-30.53,10.64-39.69,22.14-21.91,27.51-16.26,67.79,11.25,88.46,27.12,20.36,70.21,13.91,87.49-16.71h0Zm-6.65-69.95c2.99,3.44,16.52,23.03,12.42,27.83-3.15,3.69-7.25-12.21-7.51-12.84-.62-1.53-8.57-19.19-4.91-14.99h0Zm-19.02,1.62c12.91,4,18.58,6.57,23.76,19.85,2.29,5.85-.24,9.54-2.44,15.12-2.98,7.58-5.96,6.81-12.45,6.58-14.27-.5-8.94-10.21-17.28-16.54-2.75-7.96-3.09-11.2,1.81-18.59,1.51-2.28,3.6-7.35,6.59-6.43Zm-6.1-3.82c4.97,7.44-8.59,19.91-15.95,18.28-9.82,4.81-25.41.53-29.68-9.51-5.23-12.33,12.3-20.83,21.13-22.08,8.76-1.24,19.56,5.92,24.49,13.32h0Zm-11.45-18.89c-.58.89-1.15,1.78-1.73,2.67-3.68,2.29-27.96,3.65-28.98,1.19,2.31-3.99,26.33-7.51,30.71-3.87h0Zm-67.08,62.54c.28-2.9.7-31.05,6.91-30.19.4,1.05.79,2.11,1.19,3.16-.89,5.38-3.2,10.8-3.4,16.29-.12,3.32.02,6.93-.8,10.18-.53,2.12-4.23,3.8-3.91.55h0Zm6.41-1.01c-4.97-12.76,4.83-24,13.97-29.82,2.47-1.56,5.92-5.18,9.29-4.11,4.5,1.43,11.59,10.44,11.44,15.55-.27,9.79-2.87,22.92-10.82,27.99-10.16,6.49-19.47,1.71-23.88-9.6h0Zm53.54,23.08c10.13,28.64-31.55,30.51-37.81,7.2-8.49-31.55,38.51-16.31,37.81-7.2Zm-42.49,14.48c2.64-3.19,28.37,15.75,28.19,15.91-4.55,3.85-30.46-13.17-28.19-15.91Zm73.54,1.1c-6.97,6.2-25.86,5.95-27.39-4.7-.61-4.26-1.5-8.6.1-12.83,2.02-5.33,17.37-18.47,21.6-17.48,7.9,1.82,14.81-.11,16.03,9.59,1.46,11.68-1.57,17.61-10.34,25.42h0Zm-4.43,7.66c.37-.77.73-1.54,1.1-2.31,2.94-4.43,11.87-11.99,16.33-15.31,5.1-3.78-1.09,6.95-3.12,8.58-2.93,2.36-9.33,12.57-14.32,9.04Z"/>
  <g>
    <g>
      <circle class="cls-7" cx="199.27" cy="115.66" r="6.68" transform="translate(53.18 293.83) rotate(-80.78)"/>
      <path class="cls-7" d="m194.31,115.7c0-2.97,2.41-5.38,5.38-5.38,1.05,0,2.03.3,2.85.82-.92-.72-2.07-1.16-3.33-1.16-2.97,0-5.38,2.41-5.38,5.38,0,1.92,1.01,3.61,2.53,4.56-1.25-.98-2.05-2.51-2.05-4.22Z"/>
      <path class="cls-7" d="m203.29,110.32c1.17,1.2,1.9,2.85,1.9,4.66,0,3.69-2.99,6.68-6.68,6.68-1.51,0-2.91-.5-4.03-1.35,1.21,1.25,2.91,2.02,4.79,2.02,3.69,0,6.68-2.99,6.68-6.68,0-2.18-1.04-4.12-2.66-5.34Z"/>
    </g>
    <g>
      <circle class="cls-7" cx="199.35" cy="153.65" r="6.68" transform="translate(15.74 325.81) rotate(-80.78)"/>
      <path class="cls-7" d="m194.38,153.69c0-2.97,2.41-5.38,5.38-5.38,1.05,0,2.03.3,2.85.82-.92-.72-2.07-1.16-3.33-1.16-2.97,0-5.38,2.41-5.38,5.38,0,1.92,1.01,3.61,2.53,4.56-1.25-.98-2.05-2.51-2.05-4.22Z"/>
      <path class="cls-7" d="m203.37,148.32c1.17,1.2,1.9,2.85,1.9,4.66,0,3.69-2.99,6.68-6.68,6.68-1.51,0-2.91-.5-4.03-1.35,1.21,1.25,2.91,2.02,4.79,2.02,3.69,0,6.68-2.99,6.68-6.68,0-2.18-1.04-4.12-2.66-5.34Z"/>
    </g>
    <circle class="cls-7" cx="199.27" cy="115.66" r="2.66"/>
    <path class="cls-7" d="m203.38,115.07s-.39-1.62-2.42-2.13c-.1-.7-.7-1.23-1.42-1.23s-1.32.54-1.42,1.23c-2.03.51-2.4,2.13-2.42,2.13h-.51v1.17h8.71v-1.17h-.51Z"/>
    <path class="cls-7" d="m203.38,115.07s-.39-1.62-2.42-2.13c-.1-.7-.7-1.23-1.42-1.23-.14,0-.28.02-.4.06.53.16.94.61,1.02,1.17,2.03.51,2.4,2.13,2.42,2.13h.51v1.17h.81v-1.17h-.51Z"/>
    <polygon class="cls-7" points="202.57 115.07 197.34 115.07 202.57 114.45 202.57 115.07"/>
    <polygon class="cls-7" points="200.15 112.94 199 112.94 200.26 112.65 200.15 112.94"/>
    <rect class="cls-7" x="196.03" y="116.24" width="7.11" height="17.96"/>
    <path class="cls-7" d="m203.38,153.34s-.39,1.62-2.42,2.13c-.1.7-.7,1.23-1.42,1.23s-1.32-.54-1.42-1.23c-2.03-.51-2.4-2.13-2.42-2.13h-.51v-1.17h8.71v1.17h-.51Z"/>
    <path class="cls-7" d="m203.38,153.34s-.39,1.62-2.42,2.13c-.1.7-.7,1.23-1.42,1.23-.14,0-.28-.02-.4-.06.53-.16.94-.61,1.02-1.17,2.03-.51,2.4-2.13,2.42-2.13h.51v-1.17h.81v1.17h-.51Z"/>
    <polygon class="cls-7" points="202.57 153.34 197.34 153.34 202.57 153.96 202.57 153.34"/>
    <polygon class="cls-7" points="200.15 155.47 199 155.47 200.26 155.76 200.15 155.47"/>
    <rect class="cls-7" x="196.03" y="134.21" width="7.11" height="17.96"/>
    <path class="cls-7" d="m196.03,116.24h7.11v3.89s-1.21-1.88-2.67-2.49c-1.45-.61-4.36-.99-4.36-.99l-.08-.41Z"/>
    <path class="cls-6" d="m197.52,134.52c-.03,1.06-.09,2.13.14,3.16.04.19.1.39.26.51.2.15.5.11.71-.02.38-.22.6-.66.67-1.1.07-.44.01-.89-.04-1.33-.42-3.43-.57-6.89-.45-10.35.07-1.91.22-3.83.03-5.73-.06-.58-.57-2.39-1.51-1.72-.68.48-.2,2.96-.17,3.71.11,2.77.28,5.54.35,8.32.04,1.51.05,3.03,0,4.54Z"/>
    <path class="cls-6" d="m197.41,139.88c-.13.35-.06.74,0,1.11.4,2.41.02,4.87-.07,7.31-.02.49-.02,1,.22,1.42.24.42.82.68,1.23.43.46-.29.42-.97.34-1.51-.38-2.41-.48-4.87-.29-7.31.04-.5.12-1.33-.26-1.73-.35-.37-.98-.23-1.17.28Z"/>
    <polygon class="cls-7" points="196.59 152.17 203.14 152.17 203.14 151.34 196.59 152.17"/>
    <rect class="cls-7" x="202" y="117.81" width="1.14" height="33.94"/>
  </g>
  <g>
    <g>
      <circle class="cls-7" cx="124.56" cy="115.21" r="6.68" transform="translate(-9.12 219.7) rotate(-80.78)"/>
      <path class="cls-7" d="m119.59,115.25c0-2.97,2.41-5.38,5.38-5.38,1.05,0,2.03.3,2.85.82-.92-.72-2.07-1.16-3.33-1.16-2.97,0-5.38,2.41-5.38,5.38,0,1.92,1.01,3.61,2.53,4.56-1.25-.98-2.05-2.51-2.05-4.22Z"/>
      <path class="cls-7" d="m128.58,109.87c1.17,1.2,1.9,2.85,1.9,4.66,0,3.69-2.99,6.68-6.68,6.68-1.51,0-2.91-.5-4.03-1.35,1.21,1.25,2.91,2.02,4.79,2.02,3.69,0,6.68-2.99,6.68-6.68,0-2.18-1.04-4.12-2.66-5.34Z"/>
    </g>
    <g>
      <circle class="cls-7" cx="124.63" cy="153.21" r="6.68" transform="translate(-46.56 251.69) rotate(-80.78)"/>
      <path class="cls-7" d="m119.67,153.24c0-2.97,2.41-5.38,5.38-5.38,1.05,0,2.03.3,2.85.82-.92-.72-2.07-1.16-3.33-1.16-2.97,0-5.38,2.41-5.38,5.38,0,1.92,1.01,3.61,2.53,4.56-1.25-.98-2.05-2.51-2.05-4.22Z"/>
      <path class="cls-7" d="m128.66,147.87c1.17,1.2,1.9,2.85,1.9,4.66,0,3.69-2.99,6.68-6.68,6.68-1.51,0-2.91-.5-4.03-1.35,1.21,1.25,2.91,2.02,4.79,2.02,3.69,0,6.68-2.99,6.68-6.68,0-2.18-1.04-4.12-2.66-5.34Z"/>
    </g>
    <circle class="cls-7" cx="124.56" cy="115.21" r="2.66"/>
    <path class="cls-7" d="m128.66,114.62s-.39-1.62-2.42-2.13c-.1-.7-.7-1.23-1.42-1.23s-1.32.54-1.42,1.23c-2.03.51-2.4,2.13-2.42,2.13h-.51v1.17h8.71v-1.17h-.51Z"/>
    <path class="cls-7" d="m128.66,114.62s-.39-1.62-2.42-2.13c-.1-.7-.7-1.23-1.42-1.23-.14,0-.28.02-.4.06.53.16.94.61,1.02,1.17,2.03.51,2.4,2.13,2.42,2.13h.51v1.17h.81v-1.17h-.51Z"/>
    <polygon class="cls-7" points="127.86 114.62 122.63 114.62 127.86 114 127.86 114.62"/>
    <polygon class="cls-7" points="125.44 112.5 124.29 112.5 125.55 112.21 125.44 112.5"/>
    <rect class="cls-7" x="121.32" y="115.8" width="7.11" height="17.96"/>
    <path class="cls-7" d="m128.66,152.89s-.39,1.62-2.42,2.13c-.1.7-.7,1.23-1.42,1.23s-1.32-.54-1.42-1.23c-2.03-.51-2.4-2.13-2.42-2.13h-.51v-1.17h8.71v1.17h-.51Z"/>
    <path class="cls-7" d="m128.66,152.89s-.39,1.62-2.42,2.13c-.1.7-.7,1.23-1.42,1.23-.14,0-.28-.02-.4-.06.53-.16.94-.61,1.02-1.17,2.03-.51,2.4-2.13,2.42-2.13h.51v-1.17h.81v1.17h-.51Z"/>
    <polygon class="cls-7" points="127.86 152.89 122.63 152.89 127.86 153.52 127.86 152.89"/>
    <polygon class="cls-7" points="125.44 155.02 124.29 155.02 125.55 155.31 125.44 155.02"/>
    <rect class="cls-7" x="121.32" y="133.76" width="7.11" height="17.96"/>
    <path class="cls-7" d="m121.32,115.8h7.11v3.89s-1.21-1.88-2.67-2.49c-1.45-.61-4.36-.99-4.36-.99l-.08-.41Z"/>
    <path class="cls-6" d="m122.81,134.08c-.03,1.06-.09,2.13.14,3.16.04.19.1.39.26.51.2.15.5.11.71-.02.38-.22.6-.66.67-1.1.07-.44.01-.89-.04-1.33-.42-3.43-.57-6.89-.45-10.35.07-1.91.22-3.83.03-5.73-.06-.58-.57-2.39-1.51-1.72-.68.48-.2,2.96-.17,3.71.11,2.77.28,5.54.35,8.32.04,1.51.05,3.03,0,4.54Z"/>
    <path class="cls-6" d="m122.7,139.43c-.13.35-.06.74,0,1.11.4,2.41.02,4.87-.07,7.31-.02.49-.02,1,.22,1.42.24.42.82.68,1.23.43.46-.29.42-.97.34-1.51-.38-2.41-.48-4.87-.29-7.31.04-.5.12-1.33-.26-1.73-.35-.37-.98-.23-1.17.28Z"/>
    <polygon class="cls-7" points="121.88 151.72 128.43 151.72 128.43 150.89 121.88 151.72"/>
    <rect class="cls-7" x="127.29" y="117.36" width="1.14" height="33.94"/>
  </g>
  <path class="cls-1" d="m432.69,159.56c0,12.09-1.98,22.64-5.93,31.66-3.96,9.01-9.81,16.01-17.57,20.99-7.76,4.98-17.34,7.47-28.75,7.47s-20.99-2.51-28.75-7.53c-7.76-5.02-13.6-12.04-17.51-21.05-3.92-9.01-5.88-19.53-5.88-31.54s1.98-22.76,5.93-31.77c3.95-9.01,9.81-16.01,17.57-20.99,7.76-4.98,17.3-7.47,28.63-7.47s21.1,2.51,28.86,7.53c7.76,5.02,13.59,12.04,17.51,21.05,3.92,9.01,5.88,19.57,5.88,31.66Zm-69.48,0c0,6.39.42,12.21,1.25,17.45.84,5.25,2.49,9.43,4.96,12.55,2.47,3.12,6.18,4.68,11.12,4.68s8.63-1.56,11.07-4.68c2.43-3.12,4.07-7.3,4.91-12.55.84-5.25,1.25-11.07,1.25-17.45s-.42-12.22-1.25-17.51c-.84-5.29-2.47-9.49-4.91-12.61-2.43-3.12-6.12-4.68-11.07-4.68s-8.65,1.56-11.12,4.68c-2.47,3.12-4.13,7.32-4.96,12.61-.84,5.29-1.25,11.12-1.25,17.51Z"/>
  <path class="cls-1" d="m447.41,118.38c.68-3.04,2.09-6.31,4.22-9.81,2.13-3.5,4.26-6.08,6.39-7.76,10.11.99,17.74,4.91,22.87,11.75,5.13,6.84,8.19,15.82,9.18,26.92v76.89c-5.02.84-10.69,1.25-17,1.25s-11.83-.42-17-1.25v-74.27c0-6.69-.97-11.96-2.91-15.8-1.94-3.84-3.86-6.48-5.76-7.93Zm81.91-15.4c0,4.03-.68,9.15-2.05,15.34-1.37,6.2-3.5,11.66-6.39,16.37-1.9-.68-3.78-1.16-5.65-1.43-1.86-.27-3.78-.51-5.76-.74-3.19,0-6.07.61-8.61,1.83-2.55,1.22-4.83,2.93-6.84,5.13-2.02,2.21-3.88,4.89-5.59,8.04-1.71,3.16-3.33,6.67-4.85,10.55l-3.99-5.13c.38-6.16,1.2-12.3,2.45-18.42,1.25-6.12,3.15-11.71,5.7-16.77,2.55-5.06,6.01-9.11,10.38-12.15,4.37-3.04,9.91-4.56,16.6-4.56,3.27,0,5.97.17,8.1.51,2.13.34,4.3.82,6.5,1.43Z"/>
  <path class="cls-1" d="m720.18,152.26c.07-5.78-.21-10.72-.86-14.83-.65-4.11-2-7.26-4.05-9.47-2.05-2.21-5.17-3.31-9.35-3.31-5.55,0-9.49,2.81-11.81,8.44-2.32,5.63-3.48,14.57-3.48,26.81s1.77,20.84,5.3,25.78c3.54,4.95,8.65,7.42,15.34,7.42,4.56,0,9.03-1.01,13.4-3.02,4.37-2.01,8.39-4.32,12.04-6.9,2.74,1.6,5.38,4.33,7.93,8.21,2.55,3.88,4.2,7.53,4.96,10.95-5.02,5.25-11.48,9.45-19.39,12.61-7.91,3.16-16.05,4.73-24.41,4.73s-15.44-1.43-21.68-4.28c-6.24-2.85-11.43-6.92-15.57-12.21-4.15-5.29-7.28-11.6-9.41-18.94-2.13-7.34-3.19-15.46-3.19-24.36,0-14.68,2.49-26.45,7.47-35.31,4.98-8.86,11.35-15.29,19.11-19.28,7.76-3.99,15.78-5.99,24.07-5.99,6.46,0,12.4.93,17.8,2.79,5.4,1.86,10.06,4.47,13.98,7.81,3.92,3.35,6.94,7.3,9.07,11.86,2.13,4.56,3.19,9.55,3.19,14.94,0,5.7-1.56,9.93-4.68,12.66-3.12,2.74-7.15,4.11-12.09,4.11-2.81,0-5.27-.11-7.36-.34-2.09-.23-4.2-.53-6.33-.91Z"/>
  <path class="cls-1" d="m828.33,152.26c.08-5.78-.21-10.72-.86-14.83-.65-4.11-2-7.26-4.05-9.47-2.05-2.21-5.17-3.31-9.35-3.31-5.55,0-9.49,2.81-11.81,8.44-2.32,5.63-3.48,14.57-3.48,26.81s1.77,20.84,5.3,25.78c3.54,4.95,8.65,7.42,15.34,7.42,4.56,0,9.03-1.01,13.41-3.02,4.37-2.01,8.38-4.32,12.04-6.9,2.74,1.6,5.38,4.33,7.93,8.21,2.55,3.88,4.2,7.53,4.96,10.95-5.02,5.25-11.49,9.45-19.39,12.61-7.91,3.16-16.05,4.73-24.41,4.73s-15.44-1.43-21.68-4.28c-6.24-2.85-11.43-6.92-15.57-12.21-4.15-5.29-7.28-11.6-9.41-18.94-2.13-7.34-3.19-15.46-3.19-24.36,0-14.68,2.49-26.45,7.47-35.31,4.98-8.86,11.35-15.29,19.11-19.28,7.76-3.99,15.78-5.99,24.07-5.99,6.46,0,12.4.93,17.8,2.79,5.4,1.86,10.06,4.47,13.97,7.81,3.92,3.35,6.94,7.3,9.07,11.86,2.13,4.56,3.19,9.55,3.19,14.94,0,5.7-1.56,9.93-4.68,12.66-3.12,2.74-7.15,4.11-12.09,4.11-2.81,0-5.27-.11-7.36-.34-2.09-.23-4.2-.53-6.33-.91Z"/>
  <path class="cls-1" d="m872.25,185.23c0-9.05,2.11-16.48,6.33-22.3s9.75-10.11,16.6-12.89c6.85-2.78,14.18-4.16,22.02-4.16,3.57,0,7.99.1,13.23.29,5.25.19,9.96.7,14.15,1.54v21.68c-3.42-.76-7.46-1.22-12.09-1.37-4.64-.15-8.6-.23-11.87-.23-5.32,0-9.2,1.41-11.64,4.22-2.44,2.81-3.65,6.46-3.65,10.95,0,3.27.99,6.01,2.97,8.21,1.98,2.21,4.71,3.31,8.21,3.31,4.71,0,9.54-1.67,14.49-5.02,4.94-3.35,9.09-8.02,12.43-14.03l4.79,22.02c-2.97,3.5-6.37,6.94-10.21,10.32-3.84,3.38-8.31,6.22-13.4,8.5-5.1,2.28-11.03,3.42-17.8,3.42-7.83,0-14.3-1.73-19.39-5.19-5.1-3.46-8.9-7.83-11.41-13.12-2.51-5.29-3.77-10.67-3.77-16.14Zm102.33,15.52c-.68,3.04-2.07,6.29-4.16,9.75-2.09,3.46-4.24,6.03-6.45,7.7-6.46-.23-11.77-1.79-15.91-4.68-4.15-2.89-7.32-6.41-9.53-10.55-2.21-4.14-3.61-8.23-4.22-12.26v-49.05c0-5.17-1.27-9.01-3.82-11.52-2.55-2.51-6.45-3.76-11.69-3.76s-10.44.78-16.26,2.34c-5.82,1.56-11.69,3.25-17.62,5.08-2.44-2.74-4.36-6.31-5.76-10.72-1.41-4.41-2.3-8.71-2.68-12.89,5.02-2.05,10.59-3.84,16.71-5.36,6.12-1.52,12.22-2.7,18.31-3.54,6.08-.84,11.6-1.25,16.54-1.25,6.77,0,13.21,1.25,19.34,3.76,6.12,2.51,11.12,6.6,15,12.26,3.88,5.67,5.82,13.25,5.82,22.76v46.43c0,3.5.49,6.52,1.48,9.07.99,2.55,2.62,4.7,4.91,6.45Z"/>
  <path class="cls-1" d="m1010.52,101.15c6.54,0,11.45,2.21,14.72,6.62,3.27,4.41,4.91,10.42,4.91,18.03v90.58c-5.02.84-10.69,1.25-17,1.25s-11.87-.42-17.11-1.25v-113.63l1.6-1.6h12.89Zm82.48,87.27c0,4.41.42,8.54,1.25,12.38.84,3.84,2.24,7.21,4.22,10.1-2.51,2.05-5.61,3.76-9.3,5.13-3.69,1.37-7.66,2.05-11.92,2.05-6.85,0-11.6-1.81-14.26-5.42-2.66-3.61-3.99-8.8-3.99-15.57v-49.97c0-5.48-.72-9.51-2.17-12.09-1.45-2.58-4.18-3.88-8.21-3.88-2.51,0-5.42.67-8.73,2-3.31,1.33-6.54,3.46-9.7,6.39-3.16,2.93-5.91,6.79-8.27,11.58v-30c5.32-5.32,11.2-10.08,17.63-14.26,6.43-4.18,13.67-6.27,21.73-6.27,7,0,12.85,1.73,17.57,5.19,4.71,3.46,8.25,8.2,10.61,14.2,2.36,6.01,3.54,12.93,3.54,20.76v47.69Z"/>
</svg>